<?xml version="1.0" encoding="utf-8"?>
<!-- Generator: Adobe Illustrator 24.2.0, SVG Export Plug-In . SVG Version: 6.00 Build 0)  -->
<svg version="1.1" id="b9c085e1-b209-40d5-b9c5-2decca8817ec"
	 xmlns="http://www.w3.org/2000/svg" xmlns:xlink="http://www.w3.org/1999/xlink" x="0px" y="0px" viewBox="0 0 1177 494.2"
	 style="enable-background:new 0 0 1177 494.2;" xml:space="preserve">
<style type="text/css">
	.st0{fill:#3F3D56;}
	.st1{fill:#562D00;}
	.st2{fill:#0FB270;}
	.st3{opacity:0.1;enable-background:new    ;}
	.st4{fill:#F2F2F2;}
	.st5{fill:#0ABAB5;}
	.st6{fill:none;stroke:#F2F2F2;stroke-width:2;stroke-miterlimit:10;}
	.st7{opacity:0.3;fill:#6C63FF;enable-background:new    ;}
	.st8{fill:#FFE35F;}
	.st9{fill:#E30B7C;}
	.st10{fill:#E9655B;}
	.st11{fill:#192534;}
	.st12{fill:#A0616A;}
	.st13{opacity:0.1;fill:none;stroke:#000000;stroke-miterlimit:10;enable-background:new    ;}
	.st14{fill:#FFC1C7;}
	.st15{opacity:5.000000e-02;enable-background:new    ;}
	.st16{fill:#B643FD;}
	.st17{fill:#6C63FF;}
	.st18{fill:#FBBEBE;}
	.st19{fill:#707070;}
	.st20{fill:#0000F9;}
	.st21{fill:#0000F4;}
	.st22{fill:url(#SVGID_1_);}
	.st23{fill:#575A89;}
	.st24{fill:#CBCEDA;}
	.st25{opacity:0.1;}
	.st26{fill:none;stroke:#3F3D56;stroke-width:4;stroke-miterlimit:10;}
	.st27{fill:#00B269;}
	.st28{fill:#00AF68;}
	.st29{fill:#656380;}
	.st30{opacity:0.2;enable-background:new    ;}
</style>
<ellipse class="st0" cx="588.5" cy="473.2" rx="588.5" ry="21"/>
<path class="st1" d="M1047.5,355.8c2.2-3.8,3.3-8.1,3.3-12.5c0-11.3-7-20.5-15.7-20.5s-15.7,9.2-15.7,20.5c0,4.4,1.1,8.7,3.3,12.5
	c-4.4,7.8-4.4,17.3,0,25.1c-4.4,7.8-4.4,17.3,0,25.1c-4.4,7.8-4.4,17.3,0,25.1c-2.2,3.8-3.3,8.1-3.3,12.5c0,11.3,7,20.5,15.7,20.5
	s15.7-9.2,15.7-20.5c0-4.4-1.1-8.7-3.3-12.5c4.4-7.8,4.4-17.3,0-25.1c4.4-7.8,4.4-17.3,0-25.1
	C1051.9,373.1,1051.9,363.6,1047.5,355.8z"/>
<ellipse class="st0" cx="1035.1" cy="318.2" rx="15.7" ry="20.5"/>
<ellipse class="st0" cx="1035.1" cy="293.1" rx="15.7" ry="20.5"/>
<path class="st2" d="M976.4,121.5c-2.1-2.7-4.1-5.6-5.8-8.6l41.2-6.8l-44.5,0.3c-8.6-18.8-9.2-40.3-1.4-59.5l59.8,31l-55.1-40.5
	C991.1,1.6,1037.1-10.7,1073,10s48.2,66.7,27.5,102.6c-1.8,3.1-3.8,6.1-6,8.9c3.3,4.2,6.2,8.8,8.6,13.7l-53.5,27.8l57-19.1
	c8.1,24,3.6,50.6-12.1,70.5c25.6,32.6,20,79.8-12.6,105.4c-32.6,25.6-79.8,20-105.4-12.6c-21.4-27.2-21.4-65.6,0-92.9
	C955,187.1,955,148.7,976.4,121.5L976.4,121.5z"/>
<path class="st3" d="M1110.5,167.9c0,16.8-5.6,33.2-16.1,46.4c25.6,32.6,20,79.8-12.6,105.4s-79.8,20-105.4-12.6
	c-21.4-27.2-21.4-65.6,0-92.9C966.3,201.6,1110.5,159.5,1110.5,167.9z"/>
<path class="st4" d="M191.9,7h793.2c11.3,0,20.4,9.1,20.4,20.4v415.2c0,11.3-9.1,20.4-20.4,20.4H191.9c-11.3,0-20.4-9.1-20.4-20.4
	V27.4C171.5,16.1,180.6,7,191.9,7z"/>
<path class="st5" d="M172,29.5h268l0,0v434l0,0H192.4c-11.3,0-20.4-9.1-20.4-20.4l0,0V29.5L172,29.5z"/>
<path class="st0" d="M1005.5,27.4V39h-834V27.4c0-11.3,9.1-20.4,20.4-20.4l0,0h793.2C996.4,7,1005.5,16.1,1005.5,27.4L1005.5,27.4z"
	/>
<circle class="st5" cx="193" cy="23.5" r="6"/>
<circle class="st5" cx="208" cy="23.5" r="6"/>
<circle class="st5" cx="223" cy="23.5" r="6"/>
<path class="st6" d="M336,226.5"/>
<path class="st6" d="M322,225.5"/>
<path class="st7" d="M611.7,93.1h344.5c0.7,0,1.2,0.6,1.2,1.2v8.5c0,0.7-0.6,1.2-1.2,1.2H611.7c-0.7,0-1.2-0.6-1.2-1.2v-8.5
	C610.5,93.7,611.1,93.1,611.7,93.1z"/>
<path class="st8" d="M880.7,114.1h70.5c0.7,0,1.2,0.6,1.2,1.2v22.5c0,0.7-0.6,1.2-1.2,1.2h-70.5c-0.7,0-1.2-0.6-1.2-1.2v-22.5
	C879.5,114.7,880.1,114.1,880.7,114.1z"/>
<path class="st7" d="M611.7,226.9h344.5c0.7,0,1.2,0.6,1.2,1.2v8.5c0,0.7-0.6,1.2-1.2,1.2H611.7c-0.7,0-1.2-0.6-1.2-1.2v-8.5
	C610.5,227.4,611.1,226.9,611.7,226.9z"/>
<path class="st9" d="M880.7,247.9h70.5c0.7,0,1.2,0.6,1.2,1.2v22.5c0,0.7-0.6,1.2-1.2,1.2h-70.5c-0.7,0-1.2-0.6-1.2-1.2v-22.5
	C879.5,248.4,880.1,247.9,880.7,247.9z"/>
<path class="st7" d="M611.7,362.9h344.5c0.7,0,1.2,0.6,1.2,1.2v8.5c0,0.7-0.6,1.2-1.2,1.2H611.7c-0.7,0-1.2-0.6-1.2-1.2v-8.5
	C610.5,363.4,611.1,362.9,611.7,362.9z"/>
<path class="st10" d="M880.7,383.9h70.5c0.7,0,1.2,0.6,1.2,1.2v22.5c0,0.7-0.6,1.2-1.2,1.2h-70.5c-0.7,0-1.2-0.6-1.2-1.2v-22.5
	C879.5,384.4,880.1,383.9,880.7,383.9z"/>
<ellipse class="st0" cx="535.2" cy="249.8" rx="49.5" ry="49.5"/>
<path class="st11" d="M578.9,276c-0.1,0.1-0.1,0.2-0.2,0.3c-0.5,0.9-1.1,1.8-1.8,2.6c-5.5,7.6-13,13.5-21.8,17
	c-0.9,0.4-1.7,0.7-2.6,1c-0.8-0.7-1.6-1.4-2.3-2.2c-2.1-2.3-3.4-5.2-4-8.3c-1.3,0.3-2.7,0.4-4,0.4c-0.1,0-0.3,0-0.4,0
	c-10.3-0.2-19.1-7.7-23.1-18.5l-0.2-0.5c-2.4-7-2.7-14.6-0.8-21.7l0,0c0-0.2,0.1-0.5,0.2-0.7c3.4-11.6,12.3-20.1,22.9-20.7
	c0.3,0,0.7,0,1,0s0.5,0,0.8,0h0.5c13.4,0.5,24.3,13.5,24.8,29.8c5.6,3.7,8.6,10.3,7.6,16.9C577,272.7,578.1,274.3,578.9,276z"/>
<path class="st3" d="M578.7,276.3c-0.5,0.9-1.1,1.8-1.8,2.6c-0.7-1.3-1.6-2.5-2.7-3.5c0.1-0.8,0.2-1.7,0.2-2.5
	c0-5.8-2.9-11.2-7.8-14.4c-0.5-16.6-11.8-29.9-25.7-29.9c-9.9,0-18.5,6.7-22.8,16.6c-0.1,0.3-0.2,0.5-0.3,0.8l0,0
	c-0.4,0.9-0.7,1.7-1,2.6c0.4-1.8,0.8-3.6,1.5-5.4l0.1-0.1c3.8-10.6,12.5-18.1,22.5-18.6c0.3,0,0.7,0,1,0s0.5,0,0.8,0h0.5
	c13.2,0.8,23.9,13.7,24.4,29.8c5.6,3.7,8.6,10.3,7.6,16.9C576.7,272.8,577.9,274.5,578.7,276.3z"/>
<path class="st12" d="M526.5,262.1c0.1,1,0,2-0.3,3c-0.6,1.4-2,2.6-1.6,4c0.4,0.9,1.2,1.5,2.2,1.7c4.3,1.5,9,0.6,13.6,0.8
	c1.5,0.1,3,0.2,4.6,0.2c1.5,0,3-0.6,4.2-1.5c-2.4-1.2-4.6-2.6-6.7-4.2c-0.5-0.4-1-0.8-1.3-1.3c-0.8-1.4-1.3-3-1.2-4.6
	c0-1.6,0-3.2,0-4.8c-3.3,0-6.5,0-9.8,0c-1,0-4.2-0.2-4.6,0.9c-0.2,0.6,0.5,2.2,0.6,2.8C526.3,260.2,526.4,261.1,526.5,262.1z"/>
<path class="st3" d="M526.5,262.1c0.1,1,0,2-0.3,3c-0.6,1.4-2,2.6-1.6,4c0.4,0.9,1.2,1.5,2.2,1.7c4.3,1.5,9,0.6,13.6,0.8
	c1.5,0.1,3,0.2,4.6,0.2c1.5,0,3-0.6,4.2-1.5c-2.4-1.2-4.6-2.6-6.7-4.2c-0.5-0.4-1-0.8-1.3-1.3c-0.8-1.4-1.3-3-1.2-4.6
	c0-1.6,0-3.2,0-4.8c-3.3,0-6.5,0-9.8,0c-1,0-4.2-0.2-4.6,0.9c-0.2,0.6,0.5,2.2,0.6,2.8C526.3,260.2,526.4,261.1,526.5,262.1z"/>
<circle class="st12" cx="533.2" cy="249.2" r="11.5"/>
<path class="st9" d="M555,282.5c0,0.3-0.1,0.6-0.1,1c-0.4,1.9-0.9,3.7-1.6,5.5c-0.4,1.2-0.9,2.4-1.5,3.5c-0.4,0.8-1,1.5-1.5,2.2
	l-0.7,1.1c-0.4,0.7-0.8,1.5-1.1,2.3c-1.9,0.5-3.9,0.9-5.9,1.1c-1.9,0.2-3.9,0.3-5.8,0.4c-10.5,0-21.7-2.7-29.7-8.2c0,0,1.2-0.8,1-1
	c0-0.5,0-0.9,0-1.4c0-1.2,0.2-2.4,0.6-3.5c0.3-1.1,0.9-2,1.7-2.8c1-1,2.3-1.6,3.4-2.6c1.4-1.3,2.3-3,2.8-4.9l0,0
	c0.2-0.8,0.4-1.6,0.6-2.5c0.2-1.1,0.5-2.2,0.9-3.2c0.1-0.1,0.1-0.3,0.2-0.4c0.2-0.3,0.3-0.5,0.5-0.7c1-1,2.2-1.8,3.5-2.4
	c1.1-0.6,2.6-1,3.4-0.1v0.1c0.2,0.6,0.5,1.2,0.6,1.8c0.6,1.3,2.3,1.4,3.7,1.4c4.9-0.1,9.8-0.5,14.6-1.2l2.3-0.4
	c1.7-0.3,2.9,1.2,3.8,2.6C553.3,273.8,555.4,278.1,555,282.5z"/>
<path class="st13" d="M519.9,283.3c-1.1,0.2-1.7,1.3-2.2,2.3c-0.9,1.6-1.4,3.5-1.2,5.3c0,0.7,0,1.5,0.2,2.2s0.6,1.3,1.3,1.7"/>
<ellipse transform="matrix(0.2477 -0.9688 0.9688 0.2477 169.8046 700.6856)" class="st11" cx="536.1" cy="241" rx="6.3" ry="12.9"/>
<path class="st3" d="M535.2,244.7c-6.1-1.6-10.6-5-11-8.2c-0.3,0.4-0.5,0.8-0.6,1.2c-0.9,3.4,4,7.6,10.9,9.3s13.2,0.4,14-3
	c0.1-0.4,0.1-0.8,0.1-1.2C546.7,245.4,541.2,246.2,535.2,244.7z"/>
<path class="st12" d="M555.3,290.7c0,1.7,0,3.5-0.1,5.2c-0.9,0.4-1.7,0.7-2.6,1c-1.3,0.5-2.6,0.8-4,1.1c-1.9,0.5-3.9,0.9-5.9,1.1
	c-0.3-4.1-1.1-8.1-0.8-12.3l0,0c0.3-3.2,1.4-6.3,3.2-9c0.7-1.2,1.7-2.1,2.9-2.8c1.2-0.7,2.7-0.5,3.8,0.3c0.7,0.7,1.2,1.6,1.4,2.5
	c0.7,1.9,1.2,3.8,1.6,5.8c0,0.2,0.1,0.4,0.1,0.7C555.3,286.3,555.4,288.5,555.3,290.7z"/>
<path class="st0" d="M584.7,385.9c0,8.3-2,16.4-6,23.7c-0.4,0.8-0.9,1.6-1.4,2.4c-0.1,0.1-0.1,0.2-0.2,0.3c-0.5,0.9-1.1,1.8-1.8,2.6
	c-3.8,5.3-8.6,9.7-14.2,13.1l-0.3,0.2c-1.8,1.1-3.7,2.1-5.7,2.9c-0.5,0.2-1.1,0.5-1.7,0.7s-1.1,0.4-1.6,0.6
	c-0.3,0.1-0.6,0.2-0.9,0.3l0,0h-0.1c-0.6,0.2-1.2,0.4-1.9,0.6l-0.5,0.1c-0.6,0.2-1.1,0.3-1.7,0.4c-1.9,0.5-3.9,0.9-5.9,1.1l0,0
	c-1.9,0.2-3.9,0.3-5.8,0.3c-0.2,0-0.4,0-0.6,0c-2.7,0-5.4-0.3-8-0.7l-0.5-0.1c-0.5-0.1-1-0.2-1.5-0.3l0,0l-0.9-0.2
	c-1-0.2-2-0.5-2.9-0.8c-2-0.6-3.9-1.3-5.7-2.1l-0.2-0.1c-2.7-1.2-5.3-2.7-7.8-4.4c-0.2-0.1-0.4-0.3-0.6-0.4
	c-22.3-15.9-27.4-46.8-11.6-69.1c15.9-22.3,46.8-27.4,69.1-11.6c13,9.3,20.8,24.3,20.8,40.3L584.7,385.9z"/>
<path class="st11" d="M547.2,374c-0.3,5.8-5.2,10.3-11,10c-5.4-0.2-9.8-4.6-10-10c0-0.2,0-0.3,0-0.5c0-5.8,4.7-10.5,10.5-10.5
	s10.5,4.7,10.5,10.5C547.2,373.6,547.2,373.8,547.2,374z"/>
<path class="st3" d="M547.2,374c-0.3,5.8-5.2,10.3-11,10c-5.4-0.2-9.8-4.6-10-10c0-0.2,0-0.3,0-0.5c6.1-5,14.9-5,21,0
	C547.2,373.6,547.2,373.8,547.2,374z"/>
<circle class="st11" cx="536.7" cy="387.2" r="16.6"/>
<path class="st11" d="M526.6,371.6c0-5.3,3.9-9.7,9.1-10.4c-5.8-0.8-11,3.3-11.8,9c-0.8,5.8,3.3,11,9,11.8c0.9,0.1,1.9,0.1,2.8,0
	C530.5,381.4,526.6,376.9,526.6,371.6z"/>
<path class="st11" d="M517.9,394c-3.9-3.5-4.7-9.4-1.8-13.7c-0.4,0.3-0.7,0.6-1,1c-3.9,4.3-3.7,10.9,0.6,14.9
	c4.3,3.9,10.9,3.7,14.9-0.6c0.1-0.1,0.2-0.2,0.3-0.4c0.3-0.3,0.6-0.7,0.8-1.1C527.8,397.5,521.9,397.4,517.9,394z"/>
<path class="st14" d="M528,408.3c-0.9,0.2-1.7,0.5-2.5,0.9c-1.4,1-1.3,3-0.9,4.6c0.9,3.7,3.2,7.3,6.8,8.8c2.2,0.8,4.5,1.1,6.8,1
	c2.5,0,5.3-0.3,6.9-2.3c0.7-1,1.2-2.2,1.4-3.5c0.8-3,1.5-6.1,1.3-9.2c-1.5,0.1-3.2,0.2-4.4-0.7s-1.5-2.8-2-4.3
	c-0.1-0.2-0.2-0.5-0.4-0.6s-0.5-0.1-0.7-0.1c-1.6,0.1-3.2,0-4.8-0.2c-1-0.1-3.4-1.2-4.2-0.3c-0.5,0.6-0.2,2.5-0.6,3.4
	C530.1,406.9,529.2,407.8,528,408.3z"/>
<path class="st15" d="M528,408.3c-0.9,0.2-1.7,0.5-2.5,0.9c-1.4,1-1.3,3-0.9,4.6c0.9,3.7,3.2,7.3,6.8,8.8c2.2,0.8,4.5,1.1,6.8,1
	c2.5,0,5.3-0.3,6.9-2.3c0.7-1,1.2-2.2,1.4-3.5c0.8-3,1.5-6.1,1.3-9.2c-1.5,0.1-3.2,0.2-4.4-0.7s-1.5-2.8-2-4.3
	c-0.1-0.2-0.2-0.5-0.4-0.6s-0.5-0.1-0.7-0.1c-1.6,0.1-3.2,0-4.8-0.2c-1-0.1-3.4-1.2-4.2-0.3c-0.5,0.6-0.2,2.5-0.6,3.4
	C530.1,406.9,529.2,407.8,528,408.3z"/>
<circle class="st14" cx="536.4" cy="395.2" r="11.6"/>
<path class="st16" d="M561.9,420.4c-0.1,0.1-0.2,0.2-0.2,0.3l-0.5,0.6c-2.5,3-4.5,6.3-5.9,9.8c-0.5,0.2-1.1,0.5-1.7,0.7
	s-1.1,0.4-1.6,0.6c-0.3,0.1-0.6,0.2-0.9,0.3l0,0H551c-0.6,0.2-1.2,0.4-1.9,0.6l-0.5,0.1c-0.6,0.2-1.1,0.3-1.7,0.4
	c-1.9,0.5-3.9,0.9-5.9,1.1l0,0c-1.9,0.2-3.9,0.3-5.8,0.3c-0.2,0-0.4,0-0.6,0c-2.7,0-5.4-0.3-8-0.7l-0.5-0.1c-0.5-0.1-1-0.2-1.5-0.3
	l0,0l-0.9-0.2c-1-0.2-2-0.5-2.9-0.8c0.3-1.7,1-3.2,2.2-4.5c-2.2-2.7-6-3.8-8.3-6.3c-0.2-0.2-0.4-0.5-0.6-0.8
	c-0.1-0.2-0.2-0.4-0.3-0.6s-0.1-0.3-0.1-0.5c-0.1-0.4-0.1-0.7-0.1-1.1c-0.1-2.8,0.1-6.1,2.3-7.9c1.1-0.8,2.3-1.3,3.6-1.6
	c2.2-0.7,4.4-1.6,6.5-2.6c0.2,0.4,0.3,0.9,0.4,1.4c0.2,1.2,0.2,2.4,0.5,3.5c0.5,2.1,1.8,3.8,3.6,5s3.8,1.9,5.9,2.1
	c2.1,0.3,3.7-0.8,5.6-1.5c0.9-0.3,1.7-0.7,2.3-1.3c0.9-1,1.3-2.3,1.3-3.7c0-1.3-0.2-2.6-0.1-4c0-0.1,0-0.3,0-0.4
	c0-0.7,0.5-1.3,1.1-1.6c0.4,0,0.8,0,1.1,0.2l3.7,1.4c1.6,0.6,3.2,1.3,4.7,2.2C559.3,412.9,561.5,416.4,561.9,420.4z"/>
<path class="st3" d="M526.6,434.6l-0.5-0.1c-0.5-0.1-1-0.2-1.5-0.3l0,0l-0.9-0.2c-1-0.2-2-0.5-2.9-0.8c-2-0.6-3.9-1.3-5.7-2.1
	c-0.9-3-1.3-6.2-1-9.4c0.1-1.4,0.4-2.7,0.8-4c2.1,2,5.7,0.9,8.1,2.5c0.6,0.5,1.2,1.1,1.5,1.8c0.7,1.3,1.1,2.7,1.3,4.1
	c0.2,0.8,0.3,1.6,0.4,2.4c0,0.1,0,0.2,0,0.4s0,0.2,0,0.4c0.1,0.6,0.2,1.1,0.2,1.7C526.6,432.1,526.6,433.4,526.6,434.6z"/>
<path class="st16" d="M526.1,434.6c-0.5-0.1-1-0.2-1.5-0.3l0,0l-0.9-0.2c-1-0.2-2-0.5-2.9-0.8c-2-0.6-3.9-1.3-5.7-2.1l-0.2-0.1
	c-1.1-3.4-1.6-6.9-1.3-10.5c0.1-1.3,0.4-2.5,0.8-3.8c2.1,2,5.7,0.9,8.1,2.5c0.9,0.7,1.6,1.6,2,2.6s0.7,2.1,0.9,3.2
	c0.2,1.2,0.4,2.3,0.6,3.5c0,0.2,0,0.3,0,0.5c0,0.1,0,0.2,0,0.4s0,0.3,0,0.4C526.1,431.5,526.1,433,526.1,434.6z"/>
<path class="st3" d="M560.8,428.2c-1.8,1.1-3.7,2.1-5.7,2.9c-0.5,0.2-1.1,0.5-1.7,0.7s-1.1,0.4-1.6,0.6c-0.3,0.1-0.6,0.2-0.9,0.3
	l0,0h-0.1c-0.6,0.2-1.2,0.4-1.9,0.6l-0.5,0.1c0-0.9,0-1.8,0.1-2.7c0.1-0.7,0.2-1.4,0.2-2.1c0-0.1,0-0.3,0-0.4s0-0.2,0-0.2
	c0.1-0.7,0.2-1.4,0.4-2c0.2-1.4,0.7-2.8,1.3-4.1c0.4-0.7,0.9-1.3,1.5-1.7c2.4-1.6,6-0.5,8-2.5c0.4,1.2,0.7,2.4,0.8,3.6
	C561.3,423.6,561.3,425.9,560.8,428.2z"/>
<path class="st16" d="M561.1,428l-0.3,0.2c-1.8,1.1-3.7,2.1-5.7,2.9c-0.5,0.2-1.1,0.5-1.7,0.7s-1.1,0.4-1.6,0.6
	c-0.3,0.1-0.6,0.2-0.9,0.3l0,0h-0.1c-0.6,0.2-1.2,0.4-1.9,0.6c0-1.2,0-2.3,0.1-3.5c0-0.3,0-0.6,0.1-0.9c0-0.1,0-0.3,0-0.4
	s0-0.2,0-0.3c0.2-1.1,0.3-2.1,0.5-3.2s0.5-2.1,0.9-3.2s1.1-2,2-2.6c2.4-1.6,6-0.5,8-2.5c0.4,1.3,0.7,2.6,0.8,3.9
	C561.8,423.1,561.6,425.6,561.1,428z"/>
<ellipse class="st11" cx="536.2" cy="384.3" rx="13.9" ry="9.3"/>
<path class="st15" d="M524.6,432.9c0,0.2,0,0.4,0,0.7s0,0.4,0,0.7v0.1l0,0l-0.9-0.2c0-0.2,0-0.4,0-0.5c0-1.9,0.8-3.7,2.2-4.9
	c0.1-0.1,0.2-0.2,0.3-0.2c0.5-0.4,1.1-0.8,1.8-1c0.6-0.2,1.2-0.4,1.9-0.4c0.1,0,0.2,0,0.3,0c0.2,0,0.3,0,0.5,0h-0.3
	c-1.5,0.2-3,0.9-4,2c-0.1,0.1-0.2,0.2-0.3,0.4C525.2,430.4,524.7,431.6,524.6,432.9z"/>
<path class="st16" d="M534.8,433.5c0,0.6-0.1,1.3-0.2,1.9c-2.7,0-5.4-0.3-8-0.7l-0.5-0.1c-0.5-0.1-1-0.2-1.5-0.3l0,0v-0.1
	c0-0.2,0-0.4,0-0.7s0-0.5,0-0.7c0.1-1.3,0.5-2.6,1.3-3.7c0.1-0.1,0.2-0.3,0.3-0.4c0.5-0.6,1.1-1,1.8-1.3c0.5-0.3,1.1-0.4,1.7-0.4
	c0.1,0,0.1,0,0.2,0c0.1,0,0.3,0,0.4,0C532.8,427.5,534.8,430.2,534.8,433.5z"/>
<path class="st15" d="M551.9,432.5c-0.3,0.1-0.6,0.2-0.9,0.3l0,0c-0.1-1.4-0.8-2.8-1.8-3.8l-0.3-0.3c-1-0.9-2.2-1.5-3.6-1.6H545
	c0.2,0,0.3,0,0.5,0c0.1,0,0.2,0,0.3,0c0.6,0,1.3,0.1,1.9,0.4c0.5,0.2,0.9,0.4,1.4,0.7c0.1,0.1,0.2,0.1,0.3,0.2
	C550.7,429.3,551.6,430.8,551.9,432.5z"/>
<path class="st16" d="M551,432.8L551,432.8L551,432.8c-0.7,0.2-1.3,0.4-2,0.6l-0.5,0.1c-0.6,0.2-1.1,0.3-1.7,0.4
	c-1.9,0.5-3.9,0.9-5.9,1.1l0,0c-0.1-0.5-0.2-1-0.2-1.5c0-3.3,2-6.1,4.5-6.4c0.1,0,0.3,0,0.4,0c0.1,0,0.1,0,0.2,0
	c0.6,0,1.2,0.1,1.7,0.4c0.5,0.2,1,0.5,1.3,0.9c0.1,0.1,0.2,0.2,0.3,0.3C550.3,429.8,550.9,431.3,551,432.8z"/>
<path class="st3" d="M536.2,392.7c-7.5,0-13.5-3.9-13.9-8.8c0,0.2,0,0.3,0,0.5c0,5.1,6.2,9.3,13.9,9.3s13.9-4.2,13.9-9.3
	c0-0.2,0-0.3,0-0.5C549.7,388.8,543.7,392.7,536.2,392.7z"/>
<path class="st0" d="M485.7,116.1c0,8.3,2,16.4,6,23.7c0.5,0.8,0.9,1.6,1.4,2.4c0.1,0.1,0.1,0.2,0.2,0.3c0.6,0.9,1.1,1.7,1.8,2.6
	c2.1,2.9,4.5,5.5,7.1,7.9c0.5,0.5,1,0.9,1.6,1.3c1.7,1.4,3.5,2.7,5.4,3.9l0.3,0.2c1.8,1.1,3.7,2.1,5.6,2.9l1.7,0.7
	c0.5,0.2,1.1,0.5,1.6,0.6c0.3,0.1,0.6,0.2,0.9,0.3l0,0l0,0h0.1c0.6,0.2,1.2,0.4,1.9,0.6l0.5,0.1c0.6,0.2,1.1,0.3,1.7,0.4
	c0.8,0.2,1.5,0.4,2.3,0.5c1.2,0.2,2.4,0.4,3.6,0.6l0,0c1.9,0.2,3.9,0.3,5.8,0.3h0.6c2.7,0,5.4-0.3,8-0.8c0.2,0,0.3,0,0.5-0.1
	c0.5-0.1,1-0.2,1.5-0.3l0,0c0.3-0.1,0.6-0.1,0.9-0.2c1-0.2,2-0.5,2.9-0.8c0.6-0.2,1.2-0.4,1.8-0.6c1.2-0.4,2.3-0.9,3.5-1.4
	c0.2-0.1,0.3-0.1,0.5-0.2l0.2-0.1c1.5-0.7,2.9-1.4,4.3-2.2c1.2-0.7,2.3-1.4,3.5-2.2h0.1c0.2-0.1,0.4-0.2,0.5-0.4
	c22.3-15.9,27.5-46.8,11.6-69c-15.9-22.3-46.8-27.5-69-11.6C493.4,85,485.7,100.1,485.7,116.1z"/>
<path class="st17" d="M546.2,135.8c0.7,0.6,1.2,1.5,1.5,2.5c-1.4,0.4-2.9-0.3-4.2-1c-4.2-2-8.6-3.4-13.1-4.2c-0.4,0-0.7-0.2-1-0.4
	c-0.5-0.6-0.4-1.5,0.1-2.1c0.5-0.5,1.4-0.5,2.1-0.5C537,129.7,542.3,131.8,546.2,135.8L546.2,135.8z"/>
<path class="st18" d="M531.5,131.8c-0.6,1.5-1.8,2.7-3.3,3.3c-0.8,0.3-1.7,0.3-2.5,0.6c-0.9,0.2-1.6,0.7-1.9,1.5
	c-0.1,0.3-0.2,0.7-0.2,1.1c-0.1,3.5-0.2,7,1.2,10.2c1.2,2.7,3.4,4.9,5.5,7c2.5,2.4,5.2,4.9,8.5,5.9c1.9,0.6,4.2,0.7,5.8-0.5
	c0.6-0.5,1.2-1.2,1.6-1.9c1.1-1.5,2.1-3.1,2.8-4.8c1.4-3.5,0.9-7.5,0.4-11.2c0-0.2-0.1-0.4-0.2-0.6c-0.2-0.1-0.5-0.2-0.7-0.1
	c-1.8,0.2-3.4-0.8-4.2-2.4c-0.2-0.7-0.3-1.5-0.2-2.2l0.1-4.3c0-0.5,0-0.9-0.2-1.4c-0.4-0.7-1-1.3-1.8-1.5c-2.3-1.2-4.8-2.1-7.3-2.9
	c-1.1-0.3-1.9-0.9-2.4,0.3S532.1,130.5,531.5,131.8z"/>
<path class="st3" d="M531.5,131.8c-0.6,1.5-1.8,2.7-3.3,3.3c-0.8,0.3-1.7,0.3-2.5,0.6c-0.9,0.2-1.6,0.7-1.9,1.5
	c-0.1,0.3-0.2,0.7-0.2,1.1c-0.1,3.5-0.2,7,1.2,10.2c1.2,2.7,3.4,4.9,5.5,7c2.5,2.4,5.2,4.9,8.5,5.9c1.9,0.6,4.2,0.7,5.8-0.5
	c0.6-0.5,1.2-1.2,1.6-1.9c1.1-1.5,2.1-3.1,2.8-4.8c1.4-3.5,0.9-7.5,0.4-11.2c0-0.2-0.1-0.4-0.2-0.6c-0.2-0.1-0.5-0.2-0.7-0.1
	c-1.8,0.2-3.4-0.8-4.2-2.4c-0.2-0.7-0.3-1.5-0.2-2.2l0.1-4.3c0-0.5,0-0.9-0.2-1.4c-0.4-0.7-1-1.3-1.8-1.5c-2.3-1.2-4.8-2.1-7.3-2.9
	c-1.1-0.3-1.9-0.9-2.4,0.3S532.1,130.5,531.5,131.8z"/>
<circle class="st18" cx="543.1" cy="122.2" r="13.1"/>
<path class="st4" d="M525.8,164.7c1.2,0.2,2.4,0.4,3.6,0.6l0,0c1.9,0.2,3.9,0.3,5.8,0.3h0.6c2.7,0,5.4-0.3,8-0.8
	c0.2,0,0.3,0,0.5-0.1c0.5-0.1,1-0.2,1.5-0.3l0,0c0.3-0.1,0.6-0.1,0.9-0.2c1-0.2,2-0.5,2.9-0.8c0.6-0.2,1.2-0.4,1.8-0.6
	c1.2-0.4,2.3-0.9,3.5-1.4c-0.3-0.9-0.5-1.8-0.7-2.7c-0.3-2-0.4-3.9-0.4-5.9c0-1.6,0.1-3.2,0-4.8c0-1.3-0.2-2.6-0.5-3.8
	c-0.4-1.2-1.3-2.3-2.4-2.8c-1.5-0.7-3.7-1-5.2-0.3c-0.2,0.1-0.3,0.2-0.5,0.3c-0.3,0.3-0.6,0.6-0.7,1c-0.5,1.2-1,2.4-1.5,3.6
	c-0.3,0.8-0.7,1.6-1.2,2.4c-1.5,2-4.1,2.9-6.5,2.1c-0.1,0-0.3-0.1-0.4-0.2c-2-0.8-3.8-2.6-5.9-2.1c-1.2,0.3-2.1,1.1-2.6,2.3
	c0,0.1-0.1,0.1-0.1,0.2c-0.4,1-0.7,2.2-0.7,3.3C525.1,157.7,525.2,161.3,525.8,164.7z"/>
<path class="st19" d="M502.2,153.1c0.5,0.5,1,0.9,1.6,1.3c1.7,1.4,3.5,2.7,5.4,3.9l0.3,0.2c1.8,1.1,3.7,2.1,5.6,2.9l1.7,0.7
	c0.5,0.2,1.1,0.5,1.6,0.6c0.3,0.1,0.6,0.2,0.9,0.3l0,0l0,0h0.1c0.6,0.2,1.2,0.4,1.9,0.6l0.5,0.1c0.6,0.2,1.1,0.3,1.7,0.4
	c0.8,0.2,1.5,0.4,2.3,0.5c1.2,0.2,2.4,0.4,3.6,0.6l0,0c1.9,0.2,3.9,0.3,5.8,0.3h0.6c2.7,0,5.4-0.3,8-0.8c0.2,0,0.3,0,0.5-0.1
	c0.5-0.1,1-0.2,1.5-0.3l0,0c0.3-0.1,0.6-0.1,0.9-0.2c1-0.2,2-0.5,2.9-0.8c0.6-0.2,1.2-0.4,1.8-0.6c1.2-0.4,2.3-0.9,3.5-1.4
	c0.2-0.1,0.3-0.1,0.5-0.2l0.2-0.1c1.5-0.7,2.9-1.4,4.3-2.2c1-2.6,1.8-5.3,2.5-8c0-0.1,0-0.1,0-0.2c-1.6-2.8-2.9-5.6-4.5-8.4
	c-0.9-2.1-2.9-3.6-5.2-3.9c-1.1-0.4-2.2-0.6-3.3-0.6c-0.6-0.1-1.3-0.2-1.9-0.3c-1.3-0.3-2.7-0.6-3.2,0l0,0l-0.1,0.1
	c-0.2,0.7-0.1,1.4,0.2,2c0.2,0.6,0.5,1.3,0.7,1.8c0.1,0.3,0.1,0.5,0.2,0.8c0,1.2,0,2.3-0.1,3.5c-0.3,1.7-1.2,3.2-1.7,4.9
	c-0.2,0.8-0.3,1.6-0.4,2.4c-0.3,1.8-0.7,3.5-1.4,5.2c-0.1,0.4-0.3,0.7-0.5,1c-0.8,1-2.2,0.6-3.5,0.4c-0.9-0.8-0.9-2.2-1-3.4
	c-0.3-2-0.9-4-1.8-5.8l-0.3-0.7c-1-2.1-2-4.1-2.9-6.2c-1.2-2.6-2.5-5.5-1.5-8.2c0.3-0.8,0.8-1.5,1.1-2.3c0.1-0.1,0.1-0.2,0.1-0.4
	c0.1-0.3,0.1-0.6,0.2-0.9c0.1-0.6-0.1-1.1-0.5-1.5c-0.1-0.1-0.1-0.2-0.2-0.2l-0.1-0.1c-0.7-0.4-1.5-0.4-2.2-0.1
	c-0.4,0.1-0.8,0.3-1.2,0.5c-2,1.1-3.9,2.3-5.7,3.7c-0.5,0.3-0.9,0.8-1.2,1.4c0,0.4-0.1,0.8-0.2,1.1c-0.3,0.7-1.1,0.9-1.9,1.1
	c-6.1,1.4-11.4,5.3-14.5,10.7c-0.5,0.9-0.9,1.8-1.2,2.8C502.4,151.8,502.3,152.4,502.2,153.1z"/>
<path class="st11" d="M548.9,114.8c-1.8,1.8-4.6,1.9-7.1,1.8l0.1-1l-3.5,1.3c0.9-0.7,1.7-1.5,2.3-2.5c-0.5-0.4-1.2-0.4-1.7-0.1
	s-1,0.8-1.3,1.3c-2,3.1-2.5,6.9-1.3,10.4c-0.7,0.4-1.6,0.3-2.3-0.1c-0.7-0.5-1.2-1.1-1.5-1.9c-0.2-0.5-0.4-1-0.9-1.2
	c-0.4-0.1-0.9,0.1-1.1,0.5c-0.2,0.4-0.3,0.8-0.2,1.3c0.1,1,0.8,2,1,3s1.7,1.8,0.9,2.5c-0.9,0.3-1.9,0.6-2.8,0.7
	c-0.4-0.1-0.7-0.4-0.8-0.8c-0.8-1.7-0.5-3.8-1-5.6c-0.5-1.5-1.2-2.9-2.1-4.1c-0.2-0.4-0.5-0.7-0.8-1c-0.3-0.2-0.6-0.5-0.8-0.9
	c-0.1-0.4,0.1-0.9,0.5-0.8c-0.6-0.6-1.3-1.1-2-1.6c0.7-0.9,1.4-1.8,2-2.7c0.2-0.3,0.5-0.7,0.3-1.1c-0.1-0.2-0.2-0.3-0.4-0.4
	l-1.8-1.2c0-0.8,1.7-0.5,1.9-1.3c0.1-0.2,0.1-0.4,0-0.6l-0.6-2.3l2.4,1.1c0.3,0.2,0.6,0.2,0.9,0.2c0.6-0.1,0.9-0.8,1-1.5
	c-0.1-0.6,0-1.3,0.2-1.9c1.1,0,2.1,0,3.2,0c0.1-0.5-0.1-1.1-0.4-1.5l7.9-0.4c1.3-0.2,2.7-0.1,4,0.3c0.4,0.2,0.9,0.3,1.3,0.3
	c0.5,0,0.9-0.5,0.8-0.9c1.2,0.7,2.3,1.5,3.2,2.5c0.3,0.3,0.6,0.6,0.9,0.8c0.4,0.2,0.8,0.1,1.1-0.1c0.2-0.2,0.3-0.6,0.6-0.7
	s0.4,0.2,0.5,0.3c0.5,0.6,0.8,1.2,1.1,1.9c0.6-0.1,1.1-0.2,1.7-0.4c-0.5,0.5-0.6,1.3-0.3,2s0.7,1.2,1.1,1.9c0.3,0.7,0.5,1.4,0.6,2.2
	c0.2,0.9,0.2,2.1-0.7,2.6c-0.8,0.3-1.7,0.1-2.3-0.5C550.7,112.9,550.4,113.3,548.9,114.8z"/>
<path class="st20" d="M503.8,154.4c1.7,1.4,3.5,2.7,5.4,3.9l0.3,0.2c1.8,1.1,3.7,2.1,5.6,2.9l1.7,0.7c0.5,0.2,1.1,0.5,1.6,0.6
	c0.3,0.1,0.6,0.2,0.9,0.3l0,0l0,0c-0.3-1-0.6-2-0.9-3c-0.8-2.7-2.3-5.1-4.3-7.1c-1.7-1.7-4.5-4.2-7-2.7c-0.8,0.5-1.5,1.2-2,1.9
	c-0.5,0.6-0.9,1.2-1.2,1.8C503.9,154.1,503.8,154.2,503.8,154.4z"/>
<path class="st21" d="M551.3,162.9c1.2-0.4,2.3-0.9,3.5-1.4c0.2-0.1,0.3-0.1,0.5-0.2l0.2-0.1c1.5-0.7,2.9-1.4,4.3-2.2
	c1.2-0.7,2.3-1.4,3.5-2.2h0.1c-0.1-1.1-0.1-2.2,0-3.4c0.1-0.4,0-0.8-0.1-1.1s-0.3-0.5-0.6-0.8c-0.1-0.1-0.3-0.3-0.4-0.5
	c-1.1-1.3-2-2.6-4-2.4s-3.6,1.9-4.5,3.8c-0.1,0.2-0.2,0.4-0.2,0.6c-0.6,1.7-1,3.5-1.3,5.3c-0.3,1.1-0.6,2.2-0.8,3.3
	C551.5,162,551.4,162.5,551.3,162.9z"/>
<linearGradient id="SVGID_1_" gradientUnits="userSpaceOnUse" x1="-62.2" y1="932.67" x2="-62.2" y2="932.43" gradientTransform="matrix(-1 0 0 1 263.5 -474.87)">
	<stop  offset="0" style="stop-color:#808080;stop-opacity:0.25"/>
	<stop  offset="0.54" style="stop-color:#808080;stop-opacity:0.12"/>
	<stop  offset="1" style="stop-color:#808080;stop-opacity:0.1"/>
</linearGradient>
<path class="st22" d="M325.9,457.6L325.9,457.6l-0.4,0.2L325.9,457.6z"/>
<path class="st23" d="M264.5,403.5c-3.9,11.1,0.6,29.2,2.7,37.2c1.4,5.8,2.3,11.7,2.7,17.7c4.7,0.8,9.5,0.7,14.2-0.3l-3.4-16.6
	c2.4-9.8,0-36.1,0-36.1s5.5-10.2,6-25.6c0.5-15.2,4.2-20.1,4.3-20.3l0,0c7.7,4,17.6,47.2,17.6,47.2c-0.8,10.5,0.2,26.6,3.4,35.3
	c2,5.5,2.8,11.4,2.4,17.2c1.3,0.9,2.9,1.2,4.4,0.8c4.6-0.7,10.1-4.7,10.1-4.7s-1.8-47-3.1-48.8s0-11.9,0-11.9l-2.1-16.4
	c0,0,0.3-27.9-2.7-32.7c-2.6-4.2-3.2-11.5-3.4-13.4c0-0.3,0-0.5,0-0.5l-4.7-5.6c0,0-45.1-3.4-48.5,0c-0.8,0.8-1.3,2.7-1.6,5.1
	c-0.9,7.3,0.1,19.2,0.1,19.2s1.4,8.9,3.3,17.9c1.2,5.4,1.2,11,0,16.4C266.9,391,266.3,397.4,264.5,403.5z"/>
<path class="st24" d="M267.3,474.2c2,2.7,13.9,1.5,15.9,0.7c1.2-0.5,1.1-2.8,0.8-5.2c-0.2-1.5-0.5-3.1-0.6-4.2c-0.3-2.9,1-8.8,1-8.8
	s-2.7,2.8-3.3,0c-0.3-1.1-1.2-1.9-2.3-2.2c-1.4-0.4-2.9-0.3-4.2,0.3c-2.1,0.9-5.6,2.8-5,5.5c0.9,3.7-2.3,9-2.3,9
	C266.1,470.7,266.1,472.8,267.3,474.2L267.3,474.2z"/>
<path class="st3" d="M267.3,474.2c2,2.7,13.9,1.5,15.9,0.7c1.2-0.5,1.1-2.8,0.8-5.2c-1.3,0.6-3.4,1.1-7,0.8
	c-0.8-0.1-1.7-0.1-2.5-0.1c-2.6,0.1-5.1,0.1-7.7-0.2C266.2,471.5,266.4,473.1,267.3,474.2z"/>
<path class="st3" d="M308.6,406.8c-0.8,10.5,0.2,26.6,3.4,35.3c2,5.5,2.8,11.4,2.4,17.2c1.3,0.9,2.9,1.2,4.4,0.8
	c-1-6.8-5.1-36.1-7.8-59.2c-1.9-16-7.8-31.3-17.1-44.5l-2.8,3.1C298.8,363.6,308.6,406.8,308.6,406.8z"/>
<path class="st18" d="M272.1,237.5l2,9.7l9.6,16.2l11.9-5.1c0,0,16.1-16.9,6-19.3c-1.2-0.3-2.4-0.8-3.4-1.5
	c-1.8-1.4-2.7-3.6-2.6-5.8c0.1-2.4,0.6-4.8,1.6-6.9l-20.8-6.5c0.9,2.7,1.4,5.6,1.5,8.4c0.2,5.7-2,8.5-3.7,9.8
	C273.7,236.8,272.9,237.2,272.1,237.5z"/>
<path class="st3" d="M276.5,218.1c0.9,2.7,1.4,5.6,1.5,8.4c0.4,0.5,0.8,0.9,1.2,1.3c3,2.9,7.1,4.5,11.3,4.5c1.7,0,3.4-0.3,5.1-0.8
	c0.1-2.4,0.6-4.8,1.6-6.9L276.5,218.1z"/>
<path class="st18" d="M274.1,215.5c0,9.1,7.4,16.4,16.4,16.4s16.4-7.4,16.5-16.4s-7.4-16.4-16.4-16.4l0,0c-9,0-16.4,7.2-16.4,16.3
	C274.1,215.4,274.1,215.4,274.1,215.5z"/>
<path class="st3" d="M272.1,237.5l2,9.7l9.6,16.2l11.9-5.1c0,0,16.1-16.9,6-19.3c-1.2-0.3-2.4-0.8-3.4-1.5c1.8,5-5.7,15.5-5.7,15.5
	c-0.9,1.3-2.9,0.5-2.9,0.5c-4.9-0.7-13.9-14.8-15.3-17.1C273.7,236.8,272.9,237.2,272.1,237.5z"/>
<path class="st3" d="M262.8,331.1c2.9,0.7,18.7,4.2,24.7,3.3c6.6-1,19.5-1.6,19.5-1.6s8.2,0.4,10.7-0.7c0-0.3,0-0.5,0-0.5L313,326
	c0,0-45.1-3.4-48.5,0C263.6,326.9,263.1,328.8,262.8,331.1z"/>
<path class="st0" d="M292.5,253.4c0,0,8.5-11.8,5.3-16.4l14.4,5.9c0,0,8.6-1,11.8,11.9c0.5,2.1,0.7,4.4,0.5,6.5
	c-0.1,3.4,0.7,6.8,2.4,9.8c3.5,7.1,2.7,23.4-4.5,25s-9.8,0.8-9.8,0.8s1,29.5,5.2,32.9s-10.7,2.6-10.7,2.6s-12.8,0.6-19.5,1.6
	s-25.1-3.4-25.1-3.4s2.7-12.4,3.7-20.3s3.2-24.7,3.2-24.7L253,263.3c0,0-2.9-13.5,7.2-19.4s14-7.4,14-7.4s10.2,16.6,15.5,17.4
	C289.6,253.9,291.6,254.7,292.5,253.4z"/>
<path class="st3" d="M311.4,258.1c0,0,0.2,5.3-0.8,7.4s-4.5,13.7-4.5,13.7h8c0,0-4.4-4.7-4-6.9S311.4,258.1,311.4,258.1z"/>
<path class="st18" d="M287.5,298.2c0,0,17.8-4.4,19.5-8.1s6.2-12,6.2-12l-1.9-2.5l-8.6,6.8c0,0-10.3,8.2-15.1,9
	S287.5,298.2,287.5,298.2z"/>
<path class="st15" d="M287.5,298.2c0,0,17.8-4.4,19.5-8.1s6.2-12,6.2-12l-1.9-2.5l-8.6,6.8c0,0-10.3,8.2-15.1,9
	S287.5,298.2,287.5,298.2z"/>
<path class="st18" d="M272.1,277.2v9.6h1.5c7.7,0,15.2,2,21.9,5.7l2.9,1.6l0.8,0.4l5-11.2l-4.7-4.2h-0.2c-1.1,0.1-6.1,0.5-8.2-0.2
	s-4.5-2.8-10.3-1.3c-2.9,0.7-5.4,4-8.1,3L272.1,277.2z"/>
<path class="st3" d="M256.6,259.7l-3.2,3.6v8.8c0,0,2.7,27.7,11.4,30.8s24.2-1.8,24.2-1.8s4-10.6,2.1-11.3s-16.6-4.5-16.6-4.5
	s0.2-16.2-3-21.1c0,0,2.1-15.1-5.1-15.5S256.6,259.7,256.6,259.7z"/>
<path class="st0" d="M256.1,259.7l-3.2,3.6v8.8c0,0,2.7,27.7,11.4,30.8s24.2-1.8,24.2-1.8s4-10.6,2.1-11.3s-16.6-4.5-16.6-4.5
	s0.2-16.2-3-21.1c0,0,2.1-15.1-5.2-15.5S256.1,259.7,256.1,259.7z"/>
<path class="st3" d="M278.6,222.4c-0.1-1.1,0-2.1,0.4-3.1s1.5-1.6,2.5-1.5c1.4,0.3,2,2.1,3.3,2.5c1.2,0.2,2.4-0.4,2.9-1.5
	s0.7-2.3,0.6-3.5c0-1.3,0-2.7,0-4s0-3,1-4.2c1.1-1.4,3.8-2.1,5.5-2c1.2,0,2.3,0.5,3.1,1.3c0.9,0.9,2.1,1.3,3.3,1.2
	c1.1-0.2,2-0.9,2.3-2l0,0c-5.5-7.2-15.8-8.6-23-3.2c-7.2,5.5-8.6,15.8-3.2,23c0.5,0.7,1.1,1.3,1.7,1.9
	C278.9,225.7,278.7,224.1,278.6,222.4z"/>
<path class="st0" d="M301.3,207.1c1.1-0.2,2-0.9,2.3-2c0.1-0.5,0.1-1.1,0.2-1.6c0.4-1.3,1.7-1.9,2.6-2.9c1.8-1.9,1.7-5.1,0.4-7.4
	c-1-1.9-3-3.4-5.1-3.1c-1.3,0.2-2.4,1.2-3.8,1.2c-1.3-0.1-2.5-0.5-3.6-1.2c-2.8-1.3-5.9-1.5-8.9-0.8c-0.9,0.2-1.8,0.6-2.5,1.2
	c-0.5,0.6-0.9,1.2-1.3,1.8c-1.5,1.9-4.2,2.3-6.6,2.7s-5.1,1.4-5.9,3.7c-0.5,1.5,0,3.2,0.3,4.8c0.1,0.3,0.1,0.7-0.1,1
	c-0.4,0.6-1.3,0.4-2,0.5c-1.4,0.3-1.7,2-1.8,3.4c-0.1,1.6-0.1,3.2-0.1,4.8c-0.2,1.5,0.4,3,1.5,4l5.3,6.4c2.4,2.8,4.9,6.1,4.4,9.8
	c1.1,0.5,2.4-0.5,2.8-1.6c0.2-1.2,0.2-2.5-0.2-3.6c-0.4-2.1-0.7-4.2-0.8-6.3c-0.1-1.1,0-2.1,0.4-3.1s1.5-1.6,2.5-1.5
	c1.4,0.3,2,2.1,3.3,2.5c1.2,0.2,2.4-0.4,2.9-1.5s0.7-2.3,0.6-3.5v-4c0-1.5,0-3,1-4.2c1.1-1.4,3.8-2,5.5-2c1.2,0,2.3,0.5,3.1,1.3
	C298.9,206.9,300.1,207.3,301.3,207.1z"/>
<path class="st3" d="M297.6,257.7l-5,20.7C292.6,278.4,288.5,278.4,297.6,257.7z"/>
<path class="st3" d="M280.3,254.2c0,0,6.6,10.8,4,22l-1.2,0.1C283.1,276.3,285.3,271.1,280.3,254.2z"/>
<path class="st3" d="M276.1,315.4c0,0-8.1-2.7-8.7,3.5C267.4,319,269,314.7,276.1,315.4z"/>
<path class="st3" d="M299.6,279.7c0,0,1.6,11.3-1.3,15.8c4.6,1.6,9.4,2.3,14.2,1.9l1-17.7L299.6,279.7L299.6,279.7z"/>
<path class="st3" d="M298.5,294.2l0.8,0.4l5-11.2l-4.7-4.2h-0.2l0,0C299.4,279.7,300.7,289.4,298.5,294.2z"/>
<path class="st0" d="M299.6,279.2c0,0,1.6,11.3-1.3,15.8c4.6,1.6,9.4,2.3,14.2,1.9l5.6-17.7L299.6,279.2L299.6,279.2z"/>
<path class="st24" d="M313.5,467.3c0.2,1.7,1.5,3,3.1,3.2c4.4,0.7,14.9,2.3,17.6,3.6c3.4,1.6,16.8,0.5,17.4-1.1
	c0.2-0.6,0.1-1.3-0.2-1.9c-0.5-1-1.2-1.8-2.2-2.3c-0.3-0.2-0.7-0.3-1-0.4c-2.5-0.8-7.3-2.6-8.6-4.5c0,0-5.9-5.2-7.6-8
	c-0.6-1.1-1.8-1.8-3.1-1.9c-1.4-0.1-3,0.7-3.6,3.7c0,0-7.7,4.4-9.8,0.5c0,0-0.3,5.9-1.6,7.6l0,0
	C313.5,466.2,313.4,466.8,313.5,467.3z"/>
<path class="st3" d="M313.5,467.3c0.2,1.7,1.5,3,3.1,3.2c4.4,0.7,14.9,2.3,17.6,3.6c3.4,1.6,16.8,0.5,17.4-1.1
	c0.2-0.6,0.1-1.3-0.2-1.9c-0.5-1-1.2-1.8-2.2-2.3c-2.2,1.5-7,2.9-17.7,1.2c-10.2-1.6-15.2-3.1-17.6-4.2l0,0
	C313.6,466.2,313.4,466.8,313.5,467.3z"/>
<g class="st25">
	<path d="M269.6,203.9C269.6,203.9,269.6,203.8,269.6,203.9c-0.3-1.3-0.5-2.5-0.5-3.7c0.1,1,0.2,2,0.4,3
		C269.6,203.4,269.6,203.6,269.6,203.9z"/>
	<path d="M279,219c-0.3,0.6-0.4,1.2-0.4,1.9c-0.1-0.9,0.1-1.8,0.4-2.6c0.4-1,1.5-1.6,2.5-1.5c1.4,0.3,2,2.1,3.3,2.5
		c1.2,0.2,2.4-0.4,2.9-1.5s0.7-2.3,0.6-3.5c0-1.3,0-2.7,0-4s0-3,1-4.2c1.1-1.4,3.8-2.1,5.5-2c1.2,0,2.3,0.5,3.1,1.3
		c0.9,0.9,2.1,1.3,3.3,1.2c1.1-0.2,2-0.9,2.3-2c0.1-0.5,0.1-1.1,0.2-1.6c0.4-1.3,1.7-1.9,2.6-2.9c0.9-0.9,1.3-2.1,1.4-3.4
		c0.1,1.5-0.4,3-1.4,4.1c-0.9,1-2.2,1.6-2.6,2.9c-0.1,0.5-0.1,1.1-0.2,1.6c-0.3,1.1-1.2,1.8-2.3,2c-1.2,0.1-2.5-0.3-3.3-1.2
		c-0.9-0.8-2-1.3-3.1-1.3c-1.8-0.1-4.4,0.6-5.5,2c-0.9,1.1-0.9,2.7-1,4.2s0,2.7,0,4c0.1,1.2-0.1,2.4-0.6,3.5s-1.7,1.8-2.9,1.5
		c-1.4-0.4-2-2.2-3.3-2.5C280.4,217.3,279.4,217.9,279,219z"/>
	<path d="M265.7,214.5c0.3,0.8,0.8,1.6,1.4,2.2l5.3,6.4c2.2,2.7,4.6,5.8,4.4,9.2c-0.2-3.1-2.4-6-4.4-8.5l-5.3-6.4
		c-1.1-1-1.7-2.5-1.5-4C265.6,213.8,265.6,214.2,265.7,214.5z"/>
	<path d="M279.6,231.3c0.1-0.3,0.1-0.6,0.2-0.9c0,0.5,0,1.1-0.2,1.6c-0.4,1.2-1.7,2.1-2.8,1.6c0-0.2,0-0.5,0-0.7
		C278.1,233.3,279.3,232.5,279.6,231.3z"/>
</g>
<path class="st3" d="M333.1,457.3c0,0-1.7,3-7.8,0.3"/>
<path class="st3" d="M281.5,458c0,0-5.3,6.2-11.9,2"/>
<path class="st3" d="M266.2,384.7c0,0,3.7,2.3,3.8,3.7s-1.9-1-1.9-1L266.2,384.7z"/>
<path class="st3" d="M264.8,402.5c1.3,1.1,2.9,1.7,4.6,1.8c2.8,0.1,2.5,3.7,0.7,2.7C268.2,405.6,266.4,404.1,264.8,402.5z"/>
<path class="st3" d="M264.1,404.8c0,0,1.8,8.8,3.2,7.1"/>
<path class="st26" d="M83.3,459.8c3-5.5-0.4-12.3-4.3-17.2s-8.6-10-8.5-16.3c0.2-9,9.7-14.3,17.3-19.1c5.7-3.5,10.9-7.7,15.6-12.5
	c2-1.8,3.6-4,4.8-6.4c1.6-3.5,1.5-7.5,1.4-11.4c-0.3-12.8-1-25.7-1.9-38.5"/>
<path class="st27" d="M122.2,337.7c-0.2-4.8-2.9-9.1-7-11.5l-3.1,6.2l0.1-7.5c-7.4-2.2-15.2,2.1-17.4,9.5s2.1,15.2,9.5,17.4
	c7.4,2.2,15.2-2.1,17.4-9.5C122.1,340.8,122.3,339.3,122.2,337.7L122.2,337.7z"/>
<path class="st28" d="M97.2,432.7c-3.5,6.9-12,9.6-18.9,6c-6.9-3.5-9.6-12-6-18.9c3.5-6.9,12-9.6,18.9-6c3.1,1.6,5.5,4.3,6.7,7.6
	l-8.8,7.1l9.7-2.2C98.7,428.6,98.2,430.8,97.2,432.7z"/>
<path class="st28" d="M90.2,405.5c-7.7,0.5-14.4-5.3-15-13c-0.5-6.8,3.9-12.9,10.5-14.6l-0.1,5.8l3.2-6.3l0,0
	c7.7-0.4,14.3,5.6,14.7,13.3c0,0,0,0,0,0.1c0.1,1.6-0.1,3.2-0.6,4.8C101.2,401.2,96.1,405.2,90.2,405.5z"/>
<path class="st28" d="M124.3,382.8c-7.7,0.3-14.2-5.7-14.5-13.5c-0.3-7.7,5.7-14.2,13.5-14.5c2.5-0.1,5,0.5,7.2,1.7l-2.5,6.8
	l5.1-4.9c2.7,2.5,4.4,6,4.5,9.7c0.1,1.3-0.1,2.6-0.4,3.9C135.9,378.1,130.6,382.5,124.3,382.8z"/>
<path class="st3" d="M120.3,341.5c-3.2,0.3-6.4,1.4-9.6,1.6s-6.8-0.6-8.9-3.1c-1.1-1.4-1.7-3.1-2.6-4.6c-0.9-1.4-2.1-2.5-3.5-3.3
	c-3.3,7-0.4,15.3,6.6,18.7s15.3,0.4,18.7-6.6c0.4-0.9,0.8-1.8,1-2.8C121.4,341.4,120.8,341.4,120.3,341.5z"/>
<path class="st3" d="M124.3,382.8c-7.7,0.4-14.3-5.6-14.7-13.3c-0.1-2.3,0.3-4.6,1.3-6.7c1.1,0.7,2.1,1.7,2.8,2.8
	c1,1.5,1.6,3.3,2.8,4.6c2.2,2.6,5.9,3.4,9.3,3.3c3.4-0.1,6.7-1.1,10-1.4c0.5,0,0.9-0.1,1.4-0.1C135.8,378.1,130.6,382.5,124.3,382.8
	z"/>
<path class="st3" d="M90.2,405.5c-7.7,0.4-14.3-5.5-14.7-13.3c-0.1-2.2,0.3-4.5,1.2-6.5c1.2,0.8,2.2,1.7,3,2.8
	c1.1,1.5,1.8,3.3,3.1,4.7c2.4,2.6,6.3,3.6,9.9,3.5s6.8-0.9,10.3-1.2C101.3,401.3,96.2,405.2,90.2,405.5z"/>
<path class="st3" d="M97.2,432.7c-3.2,7.1-11.5,10.2-18.5,7.1c-7.1-3.2-10.2-11.5-7.1-18.5c1.2,0.8,2.2,1.7,3.1,2.8
	c1.3,1.6,2.2,3.5,3.8,5c2.9,2.8,7.5,4,11.6,4.1C92.4,433.1,94.8,433,97.2,432.7z"/>
<path class="st29" d="M62.1,453.4c0,0,11.1-0.3,14.4-2.7s17-5.2,17.9-1.4s16.7,19,4.1,19.1s-29.1-2-32.4-4S62.1,453.4,62.1,453.4z"
	/>
<path class="st30" d="M98.8,467c-12.5,0.1-29.1-1.9-32.4-4c-2.5-1.5-3.6-7.1-3.9-9.7h-0.4c0,0,0.7,8.9,4,11c3.3,2.1,19.9,4.1,32.4,4
	c3.6,0,4.9-1.3,4.8-3.2C102.8,466.3,101.5,467,98.8,467z"/>
</svg>
