<?xml version="1.0" encoding="utf-8"?>
<!-- Generator: Adobe Illustrator 24.1.3, SVG Export Plug-In . SVG Version: 6.00 Build 0)  -->
<svg version="1.1" id="Layer_1" xmlns="http://www.w3.org/2000/svg" xmlns:xlink="http://www.w3.org/1999/xlink" x="0px" y="0px"
	 viewBox="0 0 969.8 375.3" style="enable-background:new 0 0 969.8 375.3;" xml:space="preserve">
<style type="text/css">
	.st0{fill:#5995F0;}
	.st1{fill:#B643FD;}
	.st2{fill:#E9655B;}
	.st3{fill:#FFE35F;}
	.st4{fill:#555555;}
	.st5{font-family:'ArialRoundedMTBold';}
	.st6{font-size:200px;}
</style>
<g id="XMLID_1089_">
	<g id="XMLID_555_">
		<path class="st0" d="M231.4,99.6c-1.4,0-2.8-0.2-4.1-0.4l-6.7-1.5c-1.4-0.3-2.8,0.8-3.6,2.2v32c0.8,1.3-0.2,2.3-1.5,2.4h-58.2
			c-1.2-0.1-2.2-1-2.3-2.2c-1.1-12.5-11.6-22.4-24.4-22.4c-6.8,0-12.9,2.8-17.3,7.2c-4,4-6.6,9.3-7.1,15.2c-0.1,1.2-1.1,2.1-2.3,2.2
			H29.4c-1.9-0.1-3-2.3-1.8-3.8c3.8-4.9,8.2-9.3,13.2-13c5.8-4.3,12.3-7.8,19.3-10.1c0.9-0.3,1.5-1.1,1.6-2
			c2.8-30.8,28.6-55,60.2-55c0.6,0,1.1,0,1.6,0c1,0,1.9-0.6,2.2-1.5c9-25,32.9-42.8,60.9-42.8c10.9,0,21.1,2.7,30.1,7.4
			c0.8,0.4,1.2,1.2,1.4,2v42.7c-0.2,2.5,2.5,4.2,4.7,3c1.4-0.7,3-1.2,4.6-1.6c2.3-0.5,4.7-0.6,7.1-0.2c9.1,1.3,16.2,8.9,17,18
			C252.5,89.5,243.1,99.6,231.4,99.6z"/>
		<path id="XMLID_560_" class="st1" d="M339.3,135.3h91.6c0.3,0,0.5-0.4,0.3-0.6c-8.9-13.7-24.3-22.8-41.9-22.8
			c-3.5,0-6.9,0.4-10.2,1.1c-0.3,0.1-0.5-0.2-0.5-0.5c3-13.1,0.9-27.8-8.7-44.1c-0.5-0.9-1.2-1.7-2-2.4
			c-20.4-16.5-41.9-17.7-58.5-10.1c-1.1,0.5-2.4,0.1-3-1c-9.3-18-28.1-30.3-49.8-30.3c-4.9,0-9.6,0.6-14.1,1.8l0,0
			c0,0-4.2,0.4-5.1,0.9c-0.1,0.1-0.2,0.2-0.4,0.3v25.3c0.2,1.3,1.2,2.3,2.5,2.5h1.8c13.5-0.2,24.5,10.8,24.5,24.3
			s-11,24.5-24.5,24.5c-0.6,0-1.1,0-1.7-0.1c-1.3-0.1-1.6,2.3-1.6,2.3v25.7c0,0,0.2,2.3,1.5,2.2h58.8c1.5,0.1,2.5,1.4,2.2,2.9
			l-1.4,6.7c-1.2,5.6,0,12.1,5,18.6c0.5,0.6,1,1.1,1.6,1.5c16.1,10.7,33.2-0.6,33.2-15.9c0-1.4-0.1-2.8-0.4-4.1l-1.4-6.7
			C336.8,135.8,339.3,135.3,339.3,135.3z"/>
		<path id="XMLID_561_" class="st2" d="M345,152.2c-0.7,0-1.8,1.1-1.7,2.4c0,0.6,0.1,1.1,0.1,1.7c0,13.5-11,24.5-24.5,24.5
			s-24.5-11-24.5-24.5c0-0.6,0-1.1,0.1-1.7c0.1-1.3-1-2.4-2.3-3.3h-52.5c-1.3,0.9-2.3,1.9-2.6,3.1V175c0.3,1.4-0.9,2.4-2.3,2.3
			l-6.9-0.8c-0.8-0.1-1.5-0.1-2.3-0.1c-11.1,0-20.1,9-20.1,20.1s9,20.1,20.1,20.1c0.8,0,1.5-0.1,2.3-0.1l6.9-0.8
			c1.4-0.2,2.6,0.9,2.3,2.3v8.9c0.3,1.1,1.1,2.1,2.3,2.3c2.3,0.3,4.7,0.5,7.1,0.5c16.3,0,30.7-7.8,39.8-19.9c0.8-1,2.2-1.2,3.2-0.5
			c8.3,6.1,18.5,9.8,29.6,9.8c13,0,24.8-5,33.6-13.1c0.9-0.8,2.2-0.8,3,0c16.6,15.2,43.6,19.3,69.2,0.4c0.5-0.4,1-0.8,1.4-1.3
			c13.3-17.7,15.4-36.1,10.5-51.3c-0.3-0.9-1.2-1.6-2.2-1.4H345V152.2z"/>
		<path id="XMLID_557_" class="st3" d="M214.7,221.2c-13.5,0-24.5-11-24.5-24.5s11-24.5,24.5-24.5l0,0c1.3,0,2.3-1,2.3-2.3v-15.2
			c0-1.3-1-2.3-2.3-2.3h-63.6c-1.6,0-2.6-1.5-2.1-3c2-6,1.3-13.2-3.7-20.3c-0.4-0.6-1-1.2-1.6-1.6c-16.3-11.4-33.7,0-33.7,15.5v7.2
			c0,1.3-1,2.3-2.3,2.3H20.9c-0.9,0-1.7,0.5-2.1,1.4c-3.6,8.3-5.6,17.5-5.6,27.1c0,31.8,21.7,58.5,51.1,66.1
			c1.1,0.3,1.9,1.4,1.7,2.6c-0.5,2.9-0.8,5.9-0.8,8.9c0,27.5,22.2,49.8,49.7,49.8c0.9,0,1.8,0,2.7-0.1c1-0.1,1.8,0.5,2.2,1.4
			l21.1,50.5c4,9.7,16.5,12.3,24.1,5c3.7-3.6,5.4-8.9,4.3-14l-13.6-63.1c-0.1-0.6,0-1.2,0.3-1.8c3.4-5.1,6-10.8,7.3-17
			c0.3-1.2,1.5-2,2.7-1.7c3.7,0.9,7.6,1.4,11.6,1.4c15.8,0,29.8-7.4,38.9-18.8c0.3-0.4,0.5-0.9,0.5-1.4v-25.2
			C217,222.2,216,221.2,214.7,221.2L214.7,221.2z"/>
	</g>
</g>
<text transform="matrix(1 0 0 1 464.3008 254.7377)" class="st4 st5 st6">Kbits</text>
</svg>
